<?xml version="1.0" encoding="utf-8"?>
<!-- Generator: Adobe Illustrator 21.0.0, SVG Export Plug-In . SVG Version: 6.00 Build 0)  -->
<svg version="1.1" id="Layer_1" xmlns="http://www.w3.org/2000/svg" xmlns:xlink="http://www.w3.org/1999/xlink" x="0px" y="0px"
	 viewBox="0 0 512 512" style="enable-background:new 0 0 512 512;" xml:space="preserve">
<g>
	<path d="M162.9,0h-23.3c-6.1,0-12.1,2.5-16.5,6.8c-4.3,4.3-6.8,10.3-6.8,16.5v465.5c0,6.1,2.5,12.1,6.8,16.5
		c4.3,4.3,10.3,6.8,16.5,6.8h23.3c6.1,0,12.1-2.5,16.5-6.8c4.3-4.3,6.8-10.3,6.8-16.5V23.3c0-6.1-2.5-12.1-6.8-16.5
		C175,2.5,169,0,162.9,0z"/>
	<path d="M388.9,6.8C384.5,2.5,378.5,0,372.4,0h-23.3C343,0,337,2.5,332.6,6.8c-4.4,4.3-6.8,10.3-6.8,16.5v465.5
		c0,6.1,2.5,12.1,6.8,16.5c4.3,4.3,10.3,6.8,16.5,6.8h23.3c6.1,0,12.1-2.5,16.5-6.8c4.3-4.3,6.8-10.3,6.8-16.5V23.3
		C395.7,17.2,393.2,11.2,388.9,6.8z"/>
</g>
</svg>
