<!--?xml version="1.0" encoding="utf-8"?-->
<!-- Svg Vector Icons : http://www.onlinewebfonts.com/icon -->

<svg version="1.1" xmlns="http://www.w3.org/2000/svg" xmlns:xlink="http://www.w3.org/1999/xlink" x="0px" y="0px" viewBox="0 0 256 256" enable-background="new 0 0 256 256" xml:space="preserve">
<metadata> Svg Vector Icons : http://www.onlinewebfonts.com/icon </metadata>
<g><g><g><path fill="#8996B8" data-title="Layer 0" xs="0" d="M60.8,21.6c-21.1,1.1-40.9,16-47.8,36.2c-5.9,17.2-3,36.1,7.6,50.1l2.7,3.6l0.1,24.9v24.9l12.4-9.3l12.4-9.3V135c0-7.1,0.1-7.6,1-7.3c3.4,1.3,10.4,2.1,17.3,1.8c11.4-0.5,21.1-3.9,30.1-10.6c6.9-5.1,13.8-13.8,16.9-21l1.3-3.1h37.6h37.6v12c0,11.5,0.1,12,1.3,13.9c1.6,2.4,3.6,3.2,6.4,2.3c3.1-1,45.2-32.6,46.8-35.2c2.5-3.9,2.1-8.6-1-12.3C242,74,203.8,45,199.8,42.6c-2-1.2-6-1.5-7.2-0.5c-2.4,2-2.5,2.5-2.8,15.3l-0.3,12.4L153.9,70l-35.7,0.1l-1-5.1c-1.2-6.2-3.1-11.1-6.5-17c-3-5.2-10-12.9-15-16.4C86,24.7,73.2,21,60.8,21.6z M73.5,72.9v29.2H67h-6.5V79.1c0-15.4-0.2-23.1-0.6-23.1c-0.3,0-2.6,1-5.1,2.2c-2.5,1.2-4.8,2.2-5.2,2.2c-0.9,0-3.1-9.7-2.3-10c0.2-0.1,3.6-1.6,7.5-3.5l7-3.3l5.8-0.1l5.7-0.1L73.5,72.9L73.5,72.9z"/><path fill="#8996B8" data-title="Layer 1" xs="1" d="M221.3,123.9l-12.2,9.2l-0.2,19c-0.2,16.5-0.3,19.3-1.2,21.7c-1.2,3.1-2.8,4.6-6.8,5.8c-2.6,0.9-7.9,1-68.2,1.2L67.3,181v-11.6c0-12.9-0.4-14.7-3.3-16.3c-3.5-1.7-4.4-1.2-28.2,16.6c-20.1,15.1-22.4,17-23.6,19.4c-1.6,3.3-1.3,7.2,0.6,10.1c1.3,2,41.1,32.3,44.9,34.3c2.1,1.1,4.9,1.2,6.7,0.3c2.3-1.3,2.6-2.6,2.9-15.5l0.3-12.4l65.5-0.3c70.1-0.3,68-0.2,76.8-3.1c11-3.6,18.1-11,21.5-22.2c2.1-6.8,2.4-13,2.2-40l-0.2-25.6L221.3,123.9z"/></g></g></g>
</svg>