<?xml version="1.0" encoding="utf-8"?>
<!-- Svg Vector Icons : http://www.onlinewebfonts.com/icon -->
<!DOCTYPE svg PUBLIC "-//W3C//DTD SVG 1.1//EN" "http://www.w3.org/Graphics/SVG/1.1/DTD/svg11.dtd">
<svg version="1.1" xmlns="http://www.w3.org/2000/svg" xmlns:xlink="http://www.w3.org/1999/xlink" x="0px" y="0px" viewBox="0 0 256 256" enable-background="new 0 0 256 256" xml:space="preserve">
<metadata> Svg Vector Icons : http://www.onlinewebfonts.com/icon </metadata>
<g><g><g><path fill="#8996B8" d="M14.8,14.8L10,19.5l17.1,17.1c16.2,16.2,17,17.1,15,17.1h-2v33.9v33.9h6.7h6.7V94.6V67.7h2.4c2.3,0,4.1,1.8,63.2,60.8l60.8,60.8h-70.6H38.5l15.8-15.8l15.8-15.8l-4.8-4.8l-4.8-4.8L36.8,172l-23.9,23.9l23.9,23.9l23.9,23.9l4.8-4.8l4.8-4.8l-15.8-15.8l-15.8-15.8h77.3h77.3l21.7,21.7l21.7,21.7l4.8-4.8l4.8-4.8L132.7,123.2L19.5,10L14.8,14.8z"/><path fill="#8996B8" d="M189.7,17.7l-4.6,4.6L200.8,38l15.7,15.7h-66.7c-36.6,0-66.6,0.2-66.6,0.5c0,0.3,2.9,3.4,6.5,7l6.5,6.5h60.2h60.2l-15.7,15.7L185.2,99l4.8,4.8l4.8,4.8l23.9-23.9l23.9-23.9l-23.8-23.8c-13-13.1-23.9-23.8-24.1-23.8C194.5,13.2,192.3,15.3,189.7,17.7z"/><path fill="#8996B8" d="M202.3,154.3v19.5l6.7,6.7l6.7,6.7v-26.2v-26.1h-6.7h-6.7V154.3z"/></g></g></g>
</svg>